<svg width="150" height="154" viewBox="0 0 150 154" fill="none" xmlns="http://www.w3.org/2000/svg">
<path d="M127.841 85.0479H96.1365L85.5683 100.317H64.4319L53.8637 85.0479H22.1592" stroke="#E4D5C9" stroke-width="4" stroke-linecap="round" stroke-linejoin="round"/>
<path d="M40.3893 49.9788L22.1592 85.0479V115.587C22.1592 118.287 23.2726 120.876 25.2545 122.785C27.2364 124.694 29.9245 125.767 32.7274 125.767H117.273C120.076 125.767 122.764 124.694 124.746 122.785C126.728 120.876 127.841 118.287 127.841 115.587V85.0479L109.611 49.9788C108.736 48.2828 107.387 46.8556 105.716 45.8575C104.045 44.8594 102.118 44.3301 100.152 44.3291H49.8478C47.8817 44.3301 45.9548 44.8594 44.2839 45.8575C42.613 46.8556 41.2642 48.2828 40.3893 49.9788V49.9788Z" stroke="#E4D5C9" stroke-width="4" stroke-linecap="round" stroke-linejoin="round"/>
<path d="M75.0005 21.3889L75.0005 29.9915" stroke="#E4D5C9" stroke-width="4" stroke-linecap="round"/>
<path d="M93.7556 26.7665L87.4405 32.8494" stroke="#E4D5C9" stroke-width="4" stroke-linecap="round"/>
<path d="M56.2454 26.7665L62.5604 32.8494" stroke="#E4D5C9" stroke-width="4" stroke-linecap="round"/>
</svg>
