<svg width="146" height="57" viewBox="0 0 146 57" fill="none" xmlns="http://www.w3.org/2000/svg">
<g id="Group 10">
<path id="Vector" d="M64.8543 41.2481C82.5963 51.4458 100.263 54.0504 104.313 47.066C108.364 40.0814 97.2646 26.1525 79.5227 15.9548C61.7808 5.75713 44.1145 3.1523 40.0639 10.1369C36.0134 17.1213 47.1125 31.0504 64.8543 41.2481Z" stroke="#959595" stroke-width="0.5" stroke-miterlimit="10"/>
<path id="Vector_2" d="M61.8163 38.9273C76.3025 53.3491 92.6897 60.417 98.418 54.7142C104.146 49.0113 97.0468 32.6972 82.5605 18.2754C68.0744 3.85375 51.6872 -3.21435 45.9588 2.48855C40.2305 8.19133 47.3301 24.5056 61.8163 38.9273Z" stroke="#CACACA" stroke-width="0.5" stroke-miterlimit="10"/>
<g id="OPENMIND">
<path d="M8.6777 34.9074C5.81495 34.9074 3.65 34.3018 2.18284 33.0905C0.727614 31.8793 0 30.0862 0 27.7112C0 25.0987 0.739543 23.1809 2.21863 21.9577C3.69771 20.7346 5.88056 20.123 8.76716 20.123C11.8446 20.123 14.099 20.7287 15.5304 21.9399C16.9618 23.1393 17.6775 24.9087 17.6775 27.248C17.6775 29.8962 16.92 31.8377 15.4051 33.0727C13.8903 34.2959 11.6478 34.9074 8.6777 34.9074ZM8.28407 28.6552H9.37549L9.90079 26.3627H7.75373L8.28407 28.6552Z" fill="black"/>
<path d="M18.543 34.5868C18.4356 34.3374 18.3521 34.0227 18.2925 33.6427C18.2329 33.2627 18.1971 32.8709 18.1851 32.4671C18.1732 32.0515 18.1851 31.6537 18.2209 31.2737C18.2686 30.8937 18.3342 30.579 18.4177 30.3296C18.5967 30.2584 18.7696 30.1396 18.9366 29.9734C19.1155 29.7952 19.2646 29.5162 19.3839 29.1362C19.5032 28.7443 19.5628 28.198 19.5628 27.4974C19.5628 26.7374 19.4913 26.1674 19.3481 25.7874C19.2169 25.3955 19.0559 25.1343 18.865 25.0037C18.6861 24.8612 18.5251 24.7899 18.382 24.7899C18.2746 24.5762 18.1971 24.2852 18.1494 23.9171C18.1016 23.549 18.0778 23.1571 18.0778 22.7415C18.0897 22.314 18.1255 21.9043 18.1851 21.5124C18.2448 21.1087 18.3342 20.7643 18.4535 20.4793C19.3362 20.5149 20.1294 20.5209 20.8332 20.4971C21.5489 20.4734 22.2586 20.4377 22.9623 20.3902C23.678 20.3427 24.4534 20.3012 25.2883 20.2655C26.1352 20.218 27.1312 20.1943 28.2763 20.1943C29.9582 20.1943 31.3776 20.3427 32.5347 20.6396C33.6917 20.9246 34.5684 21.453 35.1648 22.2249C35.7731 22.9849 36.0773 24.0715 36.0773 25.4846C36.0773 26.7077 35.8447 27.6874 35.3795 28.4237C34.9262 29.1599 34.2702 29.6943 33.4114 30.0268C32.5525 30.3474 31.5208 30.5077 30.316 30.5077C29.5526 30.5077 28.9443 30.4484 28.491 30.3296C28.0378 30.199 27.6203 29.914 27.2386 29.4746L26.8628 29.813C27.173 30.1812 27.5487 30.4662 27.99 30.668C28.4314 30.858 28.9801 30.9649 29.6361 30.9887C29.7435 31.3212 29.7284 31.4891 29.94 32.0627C30.0471 32.353 29.94 32.419 30.2979 33.1315C30.4768 33.4877 30.7869 34.2121 30.6557 34.5565C30.0712 34.509 28.1332 34.4621 27.0954 34.3909C26.0696 34.3196 24.8947 34.2899 23.5707 34.3018C22.9027 34.3018 22.2467 34.3196 21.6025 34.3552C20.9584 34.3909 20.368 34.4265 19.8312 34.4621C19.3064 34.5096 18.877 34.5512 18.543 34.5868ZM26.8628 26.7315H27.9543L28.6699 25.538H26.1472L26.8628 26.7315Z" fill="black"/>
<path d="M37.3372 34.5868C37.2417 34.3374 37.1642 34.0227 37.1046 33.6427C37.0449 33.2627 37.0091 32.8709 36.9972 32.4671C36.9972 32.0515 37.0091 31.6537 37.033 31.2737C37.0688 30.8937 37.1284 30.579 37.2119 30.3296C37.4028 30.2584 37.5877 30.1396 37.7666 29.9734C37.9455 29.7952 38.0946 29.5162 38.2139 29.1362C38.3332 28.7443 39.1085 28.198 39.1085 27.4974C39.1085 26.7374 38.3212 26.1674 38.1781 25.7874C38.0469 25.3955 37.8858 25.1343 37.695 25.0037C37.5161 24.8612 37.355 24.7899 37.2119 24.7899C37.1046 24.5762 37.027 24.2852 36.9793 23.9171C36.9316 23.549 36.9077 23.1571 36.9077 22.7415C36.9197 22.314 36.9555 21.9043 37.0151 21.5124C37.0747 21.1087 37.1642 20.7643 37.2835 20.4793C37.4743 20.4912 37.7845 20.509 38.2139 20.5327C38.6552 20.5446 39.1622 20.5624 39.7347 20.5862C40.3192 20.598 40.9275 20.6099 41.5597 20.6218C42.1919 20.6337 42.8122 20.6455 43.4205 20.6574C44.0408 20.6574 44.5954 20.6574 45.0845 20.6574C46.3369 20.6574 47.7265 20.6396 49.2533 20.604C50.7921 20.5684 52.3189 20.5209 53.8337 20.4615C53.8934 20.6871 53.947 21.0137 53.9948 21.4412C54.0425 21.8687 54.0783 22.3437 54.1021 22.8662C54.126 23.3887 54.1379 23.9171 54.1379 24.4515C54.1379 24.9859 54.12 25.4787 54.0842 25.9299C54.0484 26.3693 53.9948 26.7137 53.9232 26.963C53.3626 27.0343 52.7423 27.0818 52.0624 27.1055C51.3825 27.1293 50.6907 27.1293 49.9869 27.1055C49.2951 27.0818 48.639 27.0343 48.0188 26.963C47.8756 26.4049 47.8756 25.1402 48.0188 24.594H45.9433V26.0546H47.6073V28.5305H45.9254V30.009H48.0188C47.8756 29.4509 47.8756 28.1802 48.0188 27.6221C49.0207 27.5627 50.0466 27.533 51.0962 27.533C52.1459 27.533 53.124 27.5627 54.0305 27.6221C54.0663 27.8359 54.0961 28.1802 54.12 28.6552C54.1439 29.1184 54.1558 29.6468 54.1558 30.2405C54.1558 30.8224 54.1439 31.4102 54.12 32.004C54.1081 32.5977 54.0842 33.1262 54.0484 33.5893C54.0126 34.0524 53.9649 34.3849 53.9053 34.5868C52.6528 34.563 51.293 34.5096 49.8259 34.4265C48.3587 34.3552 46.9214 34.3196 45.5139 34.3196C44.7505 34.3196 43.9453 34.3255 43.0984 34.3374C42.2635 34.3612 41.4524 34.3849 40.6651 34.4087C39.8898 34.4443 39.2039 34.474 38.6075 34.4977C38.023 34.5334 37.5996 34.563 37.3372 34.5868Z" fill="black"/>
<path d="M55.3808 34.5868C55.2854 34.3374 55.2079 34.0227 55.1482 33.6427C55.0886 33.2627 55.0528 32.8709 55.0409 32.4671C55.0409 32.0515 55.0528 31.6537 55.0767 31.2737C55.1125 30.8937 55.1721 30.579 55.2556 30.3296C55.4464 30.2584 55.6313 30.1396 55.8102 29.9734C55.9892 29.7952 56.1383 29.5162 56.2576 29.1362C56.3768 28.7443 56.4365 28.198 56.4365 27.4974C56.4365 26.7374 56.3649 26.1674 56.2218 25.7874C56.0906 25.3955 55.9295 25.1343 55.7387 25.0037C55.5598 24.8612 55.3987 24.7899 55.2556 24.7899C55.1482 24.5762 55.0707 24.2852 55.023 23.9171C54.9753 23.549 54.9514 23.1571 54.9514 22.7415C54.9634 22.314 54.9991 21.9043 55.0588 21.5124C55.1184 21.1087 55.2079 20.7643 55.3272 20.4793C55.6611 20.503 56.0488 20.5387 56.4902 20.5862C56.9434 20.6218 57.4027 20.6574 57.8678 20.693C58.345 20.7168 58.7863 20.7287 59.1919 20.7287C60.0626 20.7287 60.9751 20.7109 61.9294 20.6752C62.8955 20.6277 64.0168 20.5624 65.2931 20.4793C65.1022 21.263 65.0247 21.9043 65.0605 22.403C65.1082 22.9018 65.3289 23.3352 65.7225 23.7034C66.1161 24.0715 66.7245 24.4515 67.5475 24.8434L68.5027 25.0215L67.7801 24.3802C67.0286 24.024 66.4799 23.6915 66.134 23.3827C65.8 23.0621 65.6211 22.6821 65.5973 22.2427C65.5734 21.7915 65.6509 21.2037 65.8299 20.4793C66.3428 20.4912 66.9213 20.5387 67.5654 20.6218C68.2214 20.7049 68.9669 20.7465 69.8019 20.7465C70.5415 20.7465 71.2094 20.7168 71.8058 20.6574C72.4142 20.5862 72.9629 20.5268 73.4519 20.4793C73.5593 20.7643 73.6428 21.1087 73.7024 21.5124C73.762 21.9043 73.7919 22.314 73.7919 22.7415C73.7919 23.169 73.768 23.5668 73.7203 23.9349C73.6726 24.303 73.601 24.594 73.5056 24.8077C73.3624 24.8077 73.1955 24.879 73.0046 25.0215C72.8257 25.1521 72.6706 25.4074 72.5394 25.7874C72.4082 26.1674 72.3426 26.7374 72.3426 27.4974C72.3426 28.198 72.4022 28.7443 72.5215 29.1362C72.6408 29.5162 72.7899 29.7952 72.9688 29.9734C73.1478 30.1396 73.3326 30.2584 73.5235 30.3296C73.607 30.579 73.6607 30.8937 73.6845 31.2737C73.7203 31.6537 73.7322 32.0515 73.7203 32.4671C73.7203 32.8709 73.6905 33.2627 73.6308 33.6427C73.5712 34.0227 73.4937 34.3374 73.3982 34.5868C72.9211 34.5274 72.3187 34.4621 71.5911 34.3909C70.8754 34.3315 70.1299 34.3018 69.3546 34.3018C68.3526 34.3018 67.3805 34.3374 66.4382 34.4087C65.4959 34.4799 64.476 34.5393 63.3786 34.5868C63.5456 33.803 63.6112 33.144 63.5754 32.6096C63.5397 32.0752 63.3786 31.6062 63.0924 31.2024C62.8061 30.7868 62.3767 30.3949 61.8041 30.0268L60.7145 29.569L61.5178 30.4543C62.0308 30.7987 62.4065 31.1609 62.6451 31.5409C62.8836 31.909 63.0089 32.3424 63.0208 32.8412C63.0446 33.328 62.979 33.9099 62.824 34.5868C62.4303 34.5393 61.9473 34.4799 61.3747 34.4087C60.8141 34.3374 60.1461 34.3018 59.3708 34.3018C58.6432 34.3018 57.9156 34.3374 57.1879 34.4087C56.4723 34.4799 55.8699 34.5393 55.3808 34.5868Z" fill="black"/>
<path d="M74.9251 34.5868C74.8297 34.3374 74.7521 34.0227 74.6925 33.6427C74.6328 33.2627 74.5971 32.8709 74.5851 32.4671C74.5851 32.0515 74.5971 31.6537 74.6209 31.2737C74.6567 30.8937 74.7163 30.579 74.7998 30.3296C74.9907 30.2584 75.1935 30.1396 75.4082 29.9734C75.6229 29.8071 75.8257 29.534 76.0165 29.154C76.2193 28.774 76.3744 28.2396 76.4817 27.5509C76.5771 26.9809 76.601 26.5177 76.5533 26.1615C76.5056 25.7934 76.4161 25.5143 76.2849 25.3243C76.1656 25.1224 76.0344 24.9859 75.8913 24.9146C75.7601 24.8315 75.6467 24.7899 75.5513 24.7899C75.444 24.5762 75.3664 24.2852 75.3187 23.9171C75.271 23.549 75.2471 23.1571 75.2471 22.7415C75.2591 22.314 75.2949 21.9043 75.3545 21.5124C75.4141 21.1087 75.5036 20.7643 75.6229 20.4793C76.0761 20.5268 76.6248 20.5802 77.269 20.6396C77.925 20.699 78.6646 20.7287 79.4876 20.7287C80.1556 20.7287 80.8593 20.7168 81.5989 20.693C82.3503 20.6693 83.0779 20.6396 83.7817 20.604C84.4855 20.5684 85.0998 20.5268 85.6246 20.4793C85.553 20.9305 85.5351 21.4946 85.5709 22.1715C85.6186 22.8484 85.8035 23.5015 86.1256 24.1309C86.1375 23.4777 86.1554 22.8246 86.1793 22.1715C86.215 21.5065 86.2747 20.9424 86.3582 20.4793C86.8592 20.503 87.3303 20.5387 87.7717 20.5862C88.213 20.6218 88.6722 20.6574 89.1494 20.693C89.6384 20.7168 90.1931 20.7287 90.8133 20.7287C91.2189 20.7287 91.6841 20.7168 92.2089 20.693C92.7337 20.6574 93.2407 20.6218 93.7297 20.5862C94.2188 20.5387 94.6124 20.503 94.9106 20.4793C95.0299 20.7643 95.1194 21.1087 95.179 21.5124C95.2386 21.9043 95.2685 22.314 95.2685 22.7415C95.2804 23.1571 95.2625 23.549 95.2148 23.9171C95.1671 24.2852 95.0895 24.5762 94.9822 24.7899C94.8987 24.7899 94.7854 24.8315 94.6422 24.9146C94.511 24.9859 94.3858 25.1224 94.2665 25.3243C94.1591 25.5143 94.0936 25.7874 94.0697 26.1437C94.0458 26.488 94.0936 26.9452 94.2128 27.5152C94.3679 28.204 94.5349 28.7443 94.7138 29.1362C94.9047 29.5162 95.0955 29.7952 95.2864 29.9734C95.4891 30.1396 95.686 30.2584 95.8768 30.3296C95.9603 30.579 96.014 30.8937 96.0378 31.2737C96.0736 31.6537 96.0855 32.0515 96.0736 32.4671C96.0736 32.8709 96.0438 33.2627 95.9842 33.6427C95.9245 34.0227 95.847 34.3374 95.7516 34.5868C95.2625 34.5393 94.6661 34.4799 93.9623 34.4087C93.2705 34.3374 92.3938 34.3018 91.3322 34.3018C90.3183 34.3018 89.3521 34.3374 88.4337 34.4087C87.5271 34.4799 86.8293 34.5393 86.3403 34.5868C86.2926 34.3374 86.2508 34.0227 86.215 33.6427C86.1793 33.2627 86.1554 32.8709 86.1435 32.4671C86.1315 32.0515 86.1315 31.6537 86.1435 31.2737C86.1554 30.8937 86.1793 30.579 86.215 30.3296H86.8413L86.6623 28.3346L85.6067 31.3627L82.1356 29.8487L81.9209 30.3296L83.8712 31.2024C84.1455 31.3212 84.4079 31.4518 84.6584 31.5943C84.9089 31.7249 85.1236 31.903 85.3025 32.1287C85.4815 32.3543 85.6007 32.663 85.6604 33.0549C85.7319 33.4349 85.72 33.9455 85.6246 34.5868C85.398 34.563 85.0819 34.5334 84.6763 34.4977C84.2708 34.474 83.8175 34.4443 83.3165 34.4087C82.8275 34.3849 82.3205 34.3612 81.7957 34.3374C81.2828 34.3137 80.7997 34.3018 80.3464 34.3018C79.0224 34.3018 77.9011 34.3374 76.9827 34.4087C76.0761 34.4799 75.3903 34.5393 74.9251 34.5868Z" fill="black"/>
<path d="M97.322 34.5868C97.2147 34.3374 97.1312 34.0227 97.0715 33.6427C97.0119 33.2627 96.9761 32.8709 96.9642 32.4671C96.9522 32.0515 96.9642 31.6537 96.9999 31.2737C97.0477 30.8937 97.1133 30.579 97.1968 30.3296C97.3757 30.2584 97.5546 30.1396 97.7335 29.9734C97.9244 29.7952 98.0794 29.5162 98.1987 29.1362C98.318 28.7443 98.3776 28.198 98.3776 27.4974C98.3776 26.7374 98.3061 26.1674 98.1629 25.7874C98.0198 25.3955 97.8528 25.1343 97.662 25.0037C97.483 24.8612 97.328 24.7899 97.1968 24.7899C97.0894 24.5762 97.0059 24.2852 96.9463 23.9171C96.8866 23.549 96.8568 23.1571 96.8568 22.7415C96.8687 22.314 96.9045 21.9043 96.9642 21.5124C97.0357 21.1087 97.1371 20.7643 97.2683 20.4793C97.6262 20.503 98.0854 20.5387 98.646 20.5862C99.2066 20.6337 99.7971 20.6752 100.417 20.7109C101.05 20.7346 101.634 20.7465 102.171 20.7465C102.767 20.7465 103.381 20.7346 104.014 20.7109C104.646 20.6752 105.242 20.6337 105.803 20.5862C106.364 20.5387 106.823 20.503 107.181 20.4793C107.3 20.7643 107.389 21.1087 107.449 21.5124C107.509 21.9043 107.538 22.314 107.538 22.7415C107.538 23.169 107.515 23.5668 107.467 23.9349C107.419 24.303 107.342 24.594 107.234 24.8077C107.055 24.8077 106.876 24.879 106.698 25.0215C106.519 25.1521 106.369 25.4074 106.25 25.7874C106.131 26.1674 106.071 26.7374 106.071 27.4974C106.071 28.198 106.131 28.7443 106.25 29.1362C106.381 29.5162 106.536 29.7952 106.715 29.9734C106.894 30.1396 107.073 30.2584 107.252 30.3296C107.348 30.579 107.413 30.8937 107.449 31.2737C107.485 31.6537 107.497 32.0515 107.485 32.4671C107.473 32.8709 107.437 33.2627 107.377 33.6427C107.318 34.0227 107.234 34.3374 107.127 34.5868C106.769 34.5512 106.31 34.5096 105.749 34.4621C105.189 34.4265 104.592 34.3909 103.96 34.3552C103.328 34.3196 102.714 34.3018 102.117 34.3018C101.568 34.3018 100.99 34.3196 100.382 34.3552C99.7852 34.3909 99.2126 34.4265 98.6639 34.4621C98.1272 34.5096 97.6798 34.5512 97.322 34.5868Z" fill="black"/>
<path d="M137.215 34.7115C136.261 34.7115 135.426 34.6937 134.71 34.6581C133.994 34.6343 133.321 34.6046 132.688 34.569C132.056 34.5452 131.4 34.5274 130.72 34.5155C130.04 34.5155 129.259 34.5334 128.376 34.569C128.281 34.3196 128.203 34.0109 128.144 33.6427C128.084 33.2627 128.048 32.8649 128.036 32.4493C128.036 32.0337 128.048 31.6418 128.072 31.2737C128.108 30.8937 128.168 30.579 128.251 30.3296C128.502 30.2584 128.716 30.1277 128.895 29.9377C129.074 29.7359 129.211 29.4271 129.307 29.0115C129.402 28.5959 129.45 28.0318 129.45 27.3193C129.45 26.6424 129.39 26.1259 129.271 25.7696C129.164 25.4134 129.02 25.164 128.842 25.0215C128.663 24.879 128.466 24.7899 128.251 24.7543C128.132 24.4099 128.048 23.9765 128.001 23.454C127.953 22.9196 127.953 22.3793 128.001 21.833C128.06 21.2749 128.168 20.7999 128.323 20.408C129.086 20.4793 129.808 20.5149 130.488 20.5149C131.179 20.5149 131.889 20.503 132.617 20.4793C133.344 20.4437 134.138 20.414 134.996 20.3902C135.855 20.3546 136.839 20.3368 137.949 20.3368C140.477 20.3368 142.41 20.8593 143.746 21.9043C145.094 22.9493 145.768 24.6237 145.768 26.9274C145.768 27.6993 145.696 28.4652 145.553 29.2252C145.422 29.9734 145.177 30.6799 144.819 31.3449C144.473 31.998 143.978 32.5799 143.334 33.0905C142.69 33.5893 141.867 33.9871 140.865 34.284C139.875 34.569 138.658 34.7115 137.215 34.7115ZM136.41 28.5662H137.501L138.217 26.2684H135.694L136.41 28.5662Z" fill="black"/>
<path d="M109.011 34.5688C108.916 34.3195 108.838 34.0048 108.778 33.6248C108.719 33.2448 108.683 32.8529 108.671 32.4491C108.671 32.0335 108.683 31.6357 108.707 31.2557C108.743 30.8757 108.802 30.561 108.886 30.3116C109.077 30.2404 109.262 30.1216 109.44 29.9554C109.619 29.7773 109.768 29.4982 109.888 29.1182C110.007 28.7263 110.067 28.1801 110.067 27.4795C110.067 26.7195 109.995 26.1495 109.852 25.7695C109.721 25.3776 109.56 25.1163 109.369 24.9857C109.19 24.8432 109.029 24.772 108.886 24.772C108.778 24.5582 108.701 24.2673 108.653 23.8991C108.605 23.531 108.582 23.1391 108.582 22.7235C108.594 22.296 108.629 21.8863 108.689 21.4945C108.749 21.0907 108.838 20.7463 108.957 20.4613C109.291 20.4851 109.679 20.5207 110.12 20.5682C110.574 20.6038 111.033 20.6395 111.498 20.6751C111.975 20.6988 112.417 20.7107 112.822 20.7107C113.693 20.7107 114.605 20.6929 115.56 20.6573C116.526 20.6098 117.647 20.5445 118.923 20.4613C118.732 21.2451 118.655 21.8863 118.691 22.3851C118.738 22.8838 118.959 23.3173 119.353 23.6854C119.746 24.0535 120.355 24.4335 121.178 24.8254L122.133 25.0035L121.41 24.3623C120.659 24.006 120.11 23.6735 119.764 23.3648C119.43 23.0441 119.251 22.6641 119.227 22.2248C119.204 21.7735 119.281 21.1857 119.46 20.4613C119.973 20.4732 120.551 20.5207 121.196 20.6038C121.852 20.687 122.597 20.7285 123.432 20.7285C124.172 20.7285 124.84 20.6988 125.436 20.6395C126.044 20.5682 126.593 20.5088 127.082 20.4613C127.189 20.7463 127.273 21.0907 127.333 21.4945C127.392 21.8863 127.422 22.296 127.422 22.7235C127.422 23.151 127.398 23.5488 127.351 23.917C127.303 24.2851 127.231 24.576 127.136 24.7898C126.993 24.7898 126.826 24.861 126.635 25.0035C126.456 25.1341 126.301 25.3895 126.17 25.7695C126.038 26.1495 125.973 26.7195 125.973 27.4795C125.973 28.1801 126.032 28.7263 126.152 29.1182C126.271 29.4982 126.42 29.7773 126.599 29.9554C126.778 30.1216 126.963 30.2404 127.154 30.3116C127.237 30.561 127.291 30.8757 127.315 31.2557C127.351 31.6357 127.362 32.0335 127.351 32.4491C127.351 32.8529 127.321 33.2448 127.261 33.6248C127.201 34.0048 127.124 34.3195 127.028 34.5688C126.551 34.5095 125.949 34.4441 125.221 34.3729C124.506 34.3135 123.76 34.2838 122.985 34.2838C121.983 34.2838 121.011 34.3195 120.068 34.3907C119.126 34.462 118.106 34.5213 117.009 34.5688C117.176 33.7851 117.241 33.126 117.206 32.5916C117.17 32.0573 117.009 31.5882 116.723 31.1845C116.436 30.7688 116.007 30.377 115.434 30.0088L114.345 29.551L115.148 30.4363C115.661 30.7807 116.037 31.1429 116.275 31.5229C116.514 31.891 116.639 32.3245 116.651 32.8232C116.675 33.3101 116.609 33.892 116.454 34.5688C116.061 34.5213 115.577 34.462 115.005 34.3907C114.444 34.3195 113.776 34.2838 113.001 34.2838C112.273 34.2838 111.546 34.3195 110.818 34.3907C110.102 34.462 109.5 34.5213 109.011 34.5688Z" fill="black"/>
</g>
<g id="OPENMIND_2">
<path d="M42.6833 43.5767C42.0943 43.5767 41.6442 43.4171 41.333 43.0979C40.9155 42.7064 40.7067 42.1424 40.7067 41.4058C40.7067 40.6543 40.9155 40.0902 41.333 39.7136C41.6442 39.3944 42.0943 39.2349 42.6833 39.2349C43.2722 39.2349 43.7223 39.3944 44.0335 39.7136C44.4492 40.0902 44.657 40.6543 44.657 41.4058C44.657 42.1424 44.4492 42.7064 44.0335 43.0979C43.7223 43.4171 43.2722 43.5767 42.6833 43.5767ZM43.4968 42.4745C43.6962 42.224 43.7959 41.8678 43.7959 41.4058C43.7959 40.9456 43.6953 40.5903 43.494 40.3398C43.2946 40.0875 43.0243 39.9613 42.6833 39.9613C42.3422 39.9613 42.0701 40.0865 41.8669 40.337C41.6638 40.5875 41.5622 40.9437 41.5622 41.4058C41.5622 41.8678 41.6638 42.224 41.8669 42.4745C42.0701 42.725 42.3422 42.8502 42.6833 42.8502C43.0243 42.8502 43.2955 42.725 43.4968 42.4745Z" fill="black"/>
<path d="M51.8619 41.9875H50.9869V43.4625H50.1314V39.3601H51.9262C52.34 39.3601 52.6699 39.4659 52.9159 39.6774C53.1619 39.8889 53.2849 40.2164 53.2849 40.6599C53.2849 41.1441 53.1619 41.4865 52.9159 41.6869C52.6699 41.8873 52.3186 41.9875 51.8619 41.9875ZM52.2645 41.133C52.3763 41.0347 52.4322 40.8788 52.4322 40.6654C52.4322 40.4521 52.3754 40.2999 52.2617 40.209C52.1499 40.1181 51.9924 40.0726 51.7892 40.0726H50.9869V41.2805H51.7892C51.9924 41.2805 52.1508 41.2313 52.2645 41.133Z" fill="black"/>
<path d="M61.5941 41.6702H59.5925V42.725H61.8737V43.4625H58.751V39.3601H61.7731V40.0865H59.5925V40.9577H61.5941V41.6702Z" fill="black"/>
<path d="M70.6722 43.4625H69.8111L68.1281 40.5485V43.4625H67.3258V39.3601H68.2288L69.8698 42.224V39.3601H70.6722V43.4625Z" fill="black"/>
<path d="M77.0608 43.4625H76.2584V39.3601H77.5109L78.2601 42.5858L79.0038 39.3601H80.2422V43.4625H79.4399V40.6877C79.4399 40.6079 79.4408 40.4966 79.4427 40.3537C79.4445 40.209 79.4455 40.0977 79.4455 40.0197L78.6655 43.4625H77.8296L77.0552 40.0197C77.0552 40.0977 77.0561 40.209 77.058 40.3537C77.0599 40.4966 77.0608 40.6079 77.0608 40.6877V43.4625Z" fill="black"/>
<path d="M85.7698 39.3601H86.6253V43.4625H85.7698V39.3601Z" fill="black"/>
<path d="M95.5579 43.4625H94.6969L93.0139 40.5485V43.4625H92.2115V39.3601H93.1145L94.7556 42.224V39.3601H95.5579V43.4625Z" fill="black"/>
<path d="M102.933 43.4625H101.158V39.3601H102.933C103.189 39.3638 103.401 39.3935 103.571 39.4492C103.86 39.5438 104.094 39.7173 104.273 39.9696C104.416 40.1737 104.514 40.3945 104.566 40.632C104.618 40.8695 104.644 41.0959 104.644 41.3111C104.644 41.8566 104.534 42.3187 104.314 42.6972C104.016 43.2074 103.556 43.4625 102.933 43.4625ZM103.574 40.4066C103.441 40.1839 103.179 40.0726 102.788 40.0726H101.994V42.75H102.788C103.194 42.75 103.478 42.5506 103.638 42.1517C103.726 41.9327 103.769 41.672 103.769 41.3696C103.769 40.9521 103.704 40.6311 103.574 40.4066Z" fill="black"/>
</g>
</g>
</svg>
