<svg xmlns="http://www.w3.org/2000/svg" width="16" height="16" viewBox="0 0 16 16" fill="none">
<path fill-rule="evenodd" clip-rule="evenodd" d="M6.87635 1.13018C6.9566 0.949619 7.13566 0.833252 7.33325 0.833252C7.99629 0.833252 8.63218 1.09664 9.10102 1.56549C9.56986 2.03433 9.83325 2.67021 9.83325 3.33325V5.49992H13.104C13.3687 5.49736 13.6308 5.55216 13.8724 5.66057C14.1148 5.76939 14.3307 5.92962 14.5051 6.13017C14.6795 6.33072 14.8082 6.56679 14.8823 6.82201C14.9564 7.07724 14.9741 7.34553 14.9343 7.60828L14.0143 13.6082C14.0143 13.6083 14.0143 13.6082 14.0143 13.6082C13.948 14.0453 13.7259 14.4439 13.389 14.7302C13.0529 15.0159 12.625 15.1708 12.184 15.1666H2.66659C2.18035 15.1666 1.71404 14.9734 1.37022 14.6296C1.02641 14.2858 0.833252 13.8195 0.833252 13.3333V8.66659C0.833252 8.18036 1.02641 7.71404 1.37022 7.37022C1.71404 7.02641 2.18035 6.83325 2.66659 6.83325H4.34165L6.87635 1.13018ZM5.16659 7.43936L7.64375 1.86573C7.92577 1.92541 8.18696 2.06564 8.39391 2.27259C8.67522 2.5539 8.83325 2.93543 8.83325 3.33325V5.99992C8.83325 6.27606 9.05711 6.49992 9.33325 6.49992H13.1066L13.1122 6.49989C13.233 6.49852 13.3527 6.52343 13.4629 6.57289C13.5731 6.62236 13.6713 6.69519 13.7505 6.78635C13.8298 6.87751 13.8883 6.98481 13.922 7.10082C13.9556 7.21676 13.9637 7.33863 13.9456 7.45799C13.9456 7.45806 13.9456 7.45791 13.9456 7.45799L13.0256 13.4583C12.9954 13.657 12.8945 13.8381 12.7414 13.9683C12.5882 14.0985 12.3932 14.1689 12.1922 14.1666L5.16659 14.1666V7.43936ZM4.16659 14.1666V7.83325H2.66659C2.44557 7.83325 2.23361 7.92105 2.07733 8.07733C1.92105 8.23361 1.83325 8.44557 1.83325 8.66659V13.3333C1.83325 13.5543 1.92105 13.7662 2.07733 13.9225C2.23361 14.0788 2.44557 14.1666 2.66659 14.1666H4.16659Z" fill="current"/>
</svg>