<svg xmlns="http://www.w3.org/2000/svg" width="18" height="18" viewBox="0 0 18 18" fill="none">
<g clip-path="url(#clip0_6472_1397)">
<path fill-rule="evenodd" clip-rule="evenodd" d="M9.7117 2.19787C10.525 1.41232 11.6144 0.977642 12.7451 0.987468C13.8758 0.997293 14.9575 1.45083 15.757 2.25041C16.5566 3.04998 17.0102 4.13161 17.02 5.26233C17.0298 6.39305 16.5951 7.4824 15.8096 8.29575L15.8028 8.30278L13.5528 10.5527C13.1156 10.99 12.5895 11.3282 12.0101 11.5443C11.4307 11.7605 10.8116 11.8495 10.1948 11.8053C9.57797 11.7611 8.97787 11.5848 8.43519 11.2883C7.89251 10.9918 7.41995 10.5821 7.04954 10.0869C6.86346 9.83813 6.91428 9.48562 7.16305 9.29954C7.41181 9.11347 7.76432 9.16428 7.9504 9.41305C8.22418 9.77906 8.57347 10.0819 8.97458 10.301C9.37569 10.5202 9.81924 10.6505 10.2751 10.6832C10.731 10.7158 11.1886 10.65 11.6169 10.4903C12.0451 10.3305 12.434 10.0806 12.7572 9.7573L15.0036 7.51082C15.5822 6.91002 15.9023 6.1063 15.895 5.27211C15.8878 4.43635 15.5525 3.63689 14.9615 3.0459C14.3706 2.45491 13.5711 2.11969 12.7353 2.11243C11.9009 2.10517 11.0969 2.42544 10.4961 3.00436L9.20906 4.28388C8.98875 4.50291 8.6326 4.50187 8.41357 4.28156C8.19454 4.06125 8.19558 3.7051 8.41589 3.48607L9.7117 2.19787Z" fill="white"/>
<path fill-rule="evenodd" clip-rule="evenodd" d="M5.98986 6.45556C6.56925 6.23943 7.18835 6.15044 7.80516 6.19461C8.42197 6.23879 9.02207 6.4151 9.56475 6.71159C10.1074 7.00808 10.58 7.41781 10.9504 7.913C11.1365 8.16176 11.0857 8.51428 10.8369 8.70035C10.5881 8.88643 10.2356 8.83562 10.0495 8.58685C9.77576 8.22084 9.42647 7.918 9.02536 7.69885C8.62425 7.47971 8.1807 7.34939 7.7248 7.31674C7.26889 7.28409 6.8113 7.34987 6.38305 7.50961C5.95481 7.66936 5.56593 7.91934 5.24279 8.2426L2.99631 10.4891C2.41774 11.0899 2.09767 11.8936 2.10492 12.7278C2.11218 13.5635 2.44741 14.363 3.03839 14.954C3.62938 15.545 4.42885 15.8802 5.2646 15.8875C6.09879 15.8947 6.90251 15.5747 7.50331 14.9961L8.78222 13.7172C9.00189 13.4975 9.35804 13.4975 9.57771 13.7172C9.79738 13.9368 9.79738 14.293 9.57771 14.5127L8.2883 15.8021C7.47495 16.5876 6.38555 17.0223 5.25482 17.0124C4.1241 17.0026 3.04247 16.5491 2.2429 15.7495C1.44333 14.9499 0.989786 13.8683 0.97996 12.7376C0.970135 11.6068 1.40481 10.5175 2.19037 9.70415L2.19716 9.69712L4.44715 7.44725C4.44712 7.44727 4.44717 7.44723 4.44715 7.44725C4.88432 7.00994 5.4105 6.67168 5.98986 6.45556Z" fill="white"/>
</g>
<defs>
<clipPath id="clip0_6472_1397">
<rect width="18" height="18" fill="white"/>
</clipPath>
</defs>
</svg>